<svg xmlns="http://www.w3.org/2000/svg" xmlns:xlink="http://www.w3.org/1999/xlink" viewBox="0 0 259.37 36.99"><defs><style>.cls-1{fill:#fff;}.cls-2{fill:url(#Безымянный_градиент_27);}</style><linearGradient id="Безымянный_градиент_27" x1="74.6" y1="17.88" x2="259.37" y2="17.88" gradientUnits="userSpaceOnUse"><stop offset="0" stop-color="#079bd2"/><stop offset="1" stop-color="#1fe0e1"/></linearGradient></defs><title>Ресурс 5</title><g id="Слой_2" data-name="Слой 2"><g id="Режим_изоляции" data-name="Режим изоляции"><path class="cls-1" d="M0,25a1,1,0,0,0,.06-.43,10.62,10.62,0,0,1,2.6-5.95,10.93,10.93,0,0,1,5.8-3.42,15.73,15.73,0,0,1,3.75-.41H53.72v.07s0,0,0,.08a15.07,15.07,0,0,1-.89,2,9.35,9.35,0,0,1-4.44,4.21,12.35,12.35,0,0,1-5.12,1H7a5.36,5.36,0,0,0-1.43.2,3.67,3.67,0,0,0-2.63,4.21,3.52,3.52,0,0,0,2.36,2.79,5.16,5.16,0,0,0,1.91.29H26.91c2.08,0,4.15,0,6.22,0,.16,0,.17,0,.12.17a14.73,14.73,0,0,1-1,2.17,9.2,9.2,0,0,1-4.61,4.11,12.05,12.05,0,0,1-3.51.82,2.4,2.4,0,0,0-.6.06H11.05S11,37,11,37a13.53,13.53,0,0,1-3.15-.56,10.78,10.78,0,0,1-7.71-9,2.93,2.93,0,0,0-.1-.67Z"/><path class="cls-1" d="M46.2,0A2.69,2.69,0,0,1,46,.69a11.15,11.15,0,0,1-2.38,3.74A9.46,9.46,0,0,1,38.92,7a14.91,14.91,0,0,1-3.39.36H12.1c-.21,0-.21,0-.14-.2a12.2,12.2,0,0,1,2.22-3.84A9.16,9.16,0,0,1,18.73.49,13.13,13.13,0,0,1,21.51,0s.06,0,.07,0Z"/><path class="cls-2" d="M75.8,26.74H88.07v1.05H74.6V8H88V9H75.8V17H87.21V18H75.8Zm28.75-1.54a6.83,6.83,0,0,1-5.09,2,7.17,7.17,0,0,1-5.74-2.55,10,10,0,0,1-2.17-6.72,10,10,0,0,1,2.2-6.75,7.21,7.21,0,0,1,5.76-2.57,7.39,7.39,0,0,1,4.6,1.43,6.46,6.46,0,0,1,2.42,3.91h1.17A6.55,6.55,0,0,0,105,9.27a8.87,8.87,0,0,0-5.4-1.77,8.48,8.48,0,0,0-6.67,2.88,11,11,0,0,0-2.55,7.56,10.83,10.83,0,0,0,2.5,7.47,9,9,0,0,0,12.51.57A8.72,8.72,0,0,0,108,20.11h-1.14A8.35,8.35,0,0,1,104.55,25.2Zm22.12-14.78A10.94,10.94,0,0,1,129.3,18a10.51,10.51,0,0,1-2.62,7.42,8.91,8.91,0,0,1-6.85,2.83,8.68,8.68,0,0,1-6.8-2.86,10.79,10.79,0,0,1-2.58-7.53,10.78,10.78,0,0,1,2.6-7.5,9.45,9.45,0,0,1,13.62,0Zm1.4,7.55a9.94,9.94,0,0,0-2.29-6.8,8.08,8.08,0,0,0-10.37-1.29,7.94,7.94,0,0,0-2.81,3.4,11,11,0,0,0-.92,4.55,10,10,0,0,0,2.25,6.79,7.43,7.43,0,0,0,5.9,2.59,7.63,7.63,0,0,0,6-2.56A9.68,9.68,0,0,0,128.07,18ZM148,10.42a10.94,10.94,0,0,1,2.63,7.6A10.46,10.46,0,0,1,148,25.44a8.91,8.91,0,0,1-6.85,2.83,8.68,8.68,0,0,1-6.8-2.86,10.79,10.79,0,0,1-2.58-7.53,10.74,10.74,0,0,1,2.61-7.5,9.43,9.43,0,0,1,13.61,0Zm1.4,7.55a9.94,9.94,0,0,0-2.29-6.8,8.08,8.08,0,0,0-10.37-1.29,8,8,0,0,0-2.81,3.4,11,11,0,0,0-.92,4.55,10,10,0,0,0,2.25,6.79,7.45,7.45,0,0,0,5.9,2.59,7.63,7.63,0,0,0,6-2.56A9.68,9.68,0,0,0,149.39,18ZM151.79,9h7V27.79H160V9h7V8H151.79Zm18.37,9h11.41V17H170.16V9h12.16V8H169V27.79h13.47V26.74H170.16Zm29.7,8.83a3.49,3.49,0,0,0,.39.94h-1.34a2.22,2.22,0,0,1-.27-.8q-.06-.39-.12-1.2c0-.54-.07-1.12-.09-1.73s-.05-1-.07-1.14c-.13-1.74-.62-2.88-1.46-3.42a8,8,0,0,0-4.14-.81h-6.15v9.1h-1.2V8h8.16a7.74,7.74,0,0,1,4.12.92,4.89,4.89,0,0,1,2.2,4.34,4.83,4.83,0,0,1-1.14,3.29,5.19,5.19,0,0,1-3.07,1.67,5.87,5.87,0,0,1,2.45.9,3.2,3.2,0,0,1,1.2,2.16,21.19,21.19,0,0,1,.25,2.77A20.12,20.12,0,0,0,199.86,26.85Zm-5.46-9.26a8.47,8.47,0,0,0,1.65-.37,4.2,4.2,0,0,0,1.39-.76,3.34,3.34,0,0,0,.9-1.28,4.76,4.76,0,0,0,.35-1.89,3.82,3.82,0,0,0-1.81-3.51,7.18,7.18,0,0,0-3.7-.78h-6.57v8.69h6A14.08,14.08,0,0,0,194.4,17.59Zm18.71.43h11.41V17H213.11V9h12.16V8H211.91V27.79h13.48V26.74H213.11Zm19.47-6.94a8.75,8.75,0,0,1-3,1.12v1a9,9,0,0,0,2.78-.72,8.78,8.78,0,0,0,2.31-1.73V27.79h1.17V8.64h-1A9.24,9.24,0,0,1,232.58,11.08Zm26.79,16.71H258a2.2,2.2,0,0,1-.28-.8c0-.26-.08-.66-.11-1.2s-.07-1.12-.1-1.73-.05-1-.07-1.14c-.13-1.74-.62-2.88-1.46-3.42a8,8,0,0,0-4.13-.81h-6.16v9.1h-1.19V8h8.15a7.72,7.72,0,0,1,4.12.92,4.89,4.89,0,0,1,2.2,4.34,4.83,4.83,0,0,1-1.14,3.29,5.2,5.2,0,0,1-3.06,1.67,6,6,0,0,1,2.45.9,3.23,3.23,0,0,1,1.19,2.16,20.8,20.8,0,0,1,.26,2.77,19,19,0,0,0,.27,2.83A3.49,3.49,0,0,0,259.37,27.79Zm-5.84-10.2a8.38,8.38,0,0,0,1.64-.37,4.11,4.11,0,0,0,1.39-.76,3.47,3.47,0,0,0,.91-1.28,4.76,4.76,0,0,0,.34-1.89A3.83,3.83,0,0,0,256,9.78,7.22,7.22,0,0,0,252.3,9h-6.57v8.69h6A14.19,14.19,0,0,0,253.53,17.59Z"/></g></g></svg>